<svg id="svg563" version="1.1" viewBox="0 0 510 900" height="900" width="510" xmlns="http://www.w3.org/2000/svg">
  <metadata id="metadata567">
    
      
        image/svg+xml
        
      
    
  </metadata>
  
  <defs id="defs299">
    <style id="style297">.a,.g{fill:#272D22;}.a,.b,.c,.d,.f{stroke:#1a1a1a;}.a,.b,.c,.d,.f,.g{stroke-miterlimit:2;}.a,.b,.c,.d{stroke-width:8px;}.b{fill:#f8dc2a;}.c{fill:none;}.d{fill:#d2382d;}.e{fill:#1a1a1a;}.f{fill:#EFEEE6;stroke-width:15px;}.g{stroke:#272D22;stroke-width:12px;}</style>
  </defs>
  <title id="title301">11</title>
  <path id="path303" d="M531.33,438.74c-35.67-180.66-96-339.9-96-339.9S316.93,411.13,313.74,657.22C227.61,591,160.53,548.4,160.53,548.4s51.09,177.27,136.85,349.94c-5.56,6.72,155.27,8.42,234,5.1Z" class="a"></path>
  <path id="path305" d="M519.73,816.74V789.39c-23.74,30.3-48.27,61.73-72.67,93.16.52-33.25.81-76.32.81-132.09,0-247.54-12.57-651.62-12.57-651.62s-12.57,404.08-12.57,651.62c0,55.68.29,98.68.81,131.92-129.78-167.2-263-334-263-334S293.06,737.28,421.87,915.08c-2.68,3.46,29.68,3.46,27,0C472.65,882.26,496.55,849.06,519.73,816.74Z" class="a"></path>
  <rect id="rect307" height="69.87" width="31.46" y="87.92" x="419.57" class="b"></rect>
  <path id="path309" d="M432.42,359.62c-34.52,0-69-35.2-69-35.2" class="c"></path>
  <path id="path311" d="M430.4,328.83c-29.39,0-58.79-30-58.79-30" class="c"></path>
  <path id="path313" d="M433.21,301.32c-28.09,0-56.19-28.65-56.19-28.65" class="c"></path>
  <path id="path315" d="M432.67,271.12c-23.41,0-46.82-23.87-46.82-23.87" class="c"></path>
  <path id="path317" d="M432.82,239.58c-19.55,0-39.1-19.94-39.1-19.94" class="c"></path>
  <path id="path319" d="M432.64,208.68c-15.58,0-31.16-15.89-31.16-15.89" class="c"></path>
  <path id="path321" d="M429.91,390.61c-36.53,0-73.07-37.25-73.07-37.25" class="c"></path>
  <path id="path323" d="M429.09,452.14c-42,0-84-42.81-84-42.81" class="c"></path>
  <path id="path325" d="M428.85,421.37c-39.29,0-78.58-40.06-78.58-40.06" class="c"></path>
  <path id="path327" d="M426.26,634.3C372,634.3,317.72,579,317.72,579" class="c"></path>
  <path id="path329" d="M425.91,602.81c-52.44,0-104.89-53.47-104.89-53.47" class="c"></path>
  <path id="path331" d="M425.94,575.56c-50.86,0-101.72-51.85-101.72-51.85" class="c"></path>
  <path id="path333" d="M427.08,544.68c-48.82,0-97.63-49.77-97.63-49.77" class="c"></path>
  <path id="path335" d="M426.86,513.84c-46.49,0-93-47.4-93-47.4" class="c"></path>
  <path id="path337" d="M428,483c-44.29,0-88.58-45.15-88.58-45.15" class="c"></path>
  <path id="path339" d="M426.32,665.42c-55,0-110-56.07-110-56.07" class="c"></path>
  <path id="path341" d="M425,696.65c-55.12,0-110.24-54.88-110.24-54.88" class="c"></path>
  <path id="path343" d="M438.31,359.62c34.53,0,69.05-35.2,69.05-35.2" class="c"></path>
  <path id="path345" d="M440.33,328.83c29.4,0,58.8-30,58.8-30" class="c"></path>
  <path id="path347" d="M437.53,301.32c28.09,0,56.18-28.65,56.18-28.65" class="c"></path>
  <path id="path349" d="M438.06,271.12c23.42,0,46.83-23.87,46.83-23.87" class="c"></path>
  <path id="path351" d="M437.92,239.58c19.55,0,39.1-19.94,39.1-19.94" class="c"></path>
  <path id="path353" d="M438.1,208.68c15.58,0,31.16-15.89,31.16-15.89" class="c"></path>
  <path id="path355" d="M440.82,390.61c36.54,0,73.08-37.25,73.08-37.25" class="c"></path>
  <path id="path357" d="M441.64,452.14c28,0,55.95-19,71.51-31.68" class="c"></path>
  <path id="path359" d="M441.89,421.37c27.88,0,55.75-20.16,69.6-31.88" class="c"></path>
  <path id="path361" d="M444.48,634.3c25.77,0,51.54-12.48,71.5-25.59" class="c"></path>
  <path id="path363" d="M444.83,602.81c25.25,0,50.5-12.4,69.9-25.25" class="c"></path>
  <path id="path365" d="M444.79,575.56c25.43,0,50.87-13,69.94-25.93" class="c"></path>
  <path id="path367" d="M443.66,544.68c26.8,0,53.6-15,72.32-28.53" class="c"></path>
  <path id="path369" d="M443.87,513.84c27.11,0,54.22-16.11,72.11-29.55" class="c"></path>
  <path id="path371" d="M442.75,483c26.71,0,53.41-16.41,70.4-29.45" class="c"></path>
  <path id="path373" d="M444.42,665.42c24.56,0,49.12-11.19,68.78-23.57" class="c"></path>
  <path id="path375" d="M445.72,696.65c24.65,0,49.29-11.23,69-23.66" class="c"></path>
  <path id="path377" d="M468.15,885.6c13.3,10,30.24,15.08,46.51,17.54" class="c"></path>
  <path id="path379" d="M485.76,860.23c8.49,6.36,18.53,10.64,28.89,13.49" class="c"></path>
  <path id="path381" d="M511.56,752.48c-13.78-29.12-18.17-67.32-18.17-67.32" class="c"></path>
  <path id="path383" d="M493.32,827.35c-33.61-25.17-45.52-97.82-45.52-97.82" class="c"></path>
  <path id="path385" d="M511.56,802.58C480.12,779,468.73,694.35,468.73,694.35" class="c"></path>
  <path id="path387" d="M473.94,851.37c-11.08-8.3-19.51-20.12-25.87-32.46" class="c"></path>
  <rect id="rect389" transform="translate(-305.39 218.21) rotate(-36.84)" height="69.87" width="31.46" y="532.68" x="159.19" class="b"></rect>
  <path id="path391" d="M314.57,758.83c-27.63,20.7-76.36,13.23-76.36,13.23" class="c"></path>
  <path id="path393" d="M294.5,735.4c-23.53,17.63-65,11.27-65,11.27" class="c"></path>
  <path id="path395" d="M280.25,711.7c-22.49,16.84-62.15,10.76-62.15,10.76" class="c"></path>
  <path id="path397" d="M261.71,687.85c-18.74,14-51.78,9-51.78,9" class="c"></path>
  <path id="path399" d="M242.92,662.52c-15.65,11.72-43.25,7.49-43.25,7.49" class="c"></path>
  <path id="path401" d="M224.25,637.9c-12.47,9.34-34.47,6-34.47,6" class="c"></path>
  <path id="path403" d="M331.14,785.14c-29.24,21.91-80.81,14-80.81,14" class="c"></path>
  <path id="path405" d="M367.38,834.88C333.77,860.06,274.49,851,274.49,851" class="c"></path>
  <path id="path407" d="M348.73,810.4c-31.44,23.56-86.91,15.05-86.91,15.05" class="c"></path>
  <path id="path409" d="M402.58,885.6c-37.2,27.87-102.83,17.81-102.83,17.81" class="c"></path>
  <path id="path411" d="M385,860.23c-35.45,26.55-98,17-98,17" class="c"></path>
  <path id="path413" d="M319.28,755.3c27.63-20.7,36.8-82.77,36.8-82.77" class="c"></path>
  <path id="path415" d="M302.44,729.45C326,711.82,335.49,657,335.49,657" class="c"></path>
  <path id="path417" d="M283.7,709.11c22.48-16.84,27.8-56.61,27.8-56.61" class="c"></path>
  <path id="path419" d="M266,684.62c18.73-14,23.16-47.17,23.16-47.17" class="c"></path>
  <path id="path421" d="M247,659.47c15.65-11.73,19.34-39.41,19.34-39.41" class="c"></path>
  <path id="path423" d="M228.62,634.63c12.47-9.34,15.41-31.4,15.41-31.4" class="c"></path>
  <path id="path425" d="M339.88,778.6c29.24-21.9,37.47-93.44,37.47-93.44" class="c"></path>
  <path id="path427" d="M377.42,827.35c33.61-25.17,45.51-97.82,45.51-97.82" class="c"></path>
  <path id="path429" d="M359.17,802.58C390.62,779,402,694.35,402,694.35" class="c"></path>
  <path id="path431" d="M396.8,851.37c11.08-8.3,19.51-20.12,25.87-32.46" class="c"></path>
  <path id="path433" d="M-10.31,908.28H127.32c41.56-94.49,65.61-177.93,65.61-177.93S148.72,758.41,92,802.06c-2.08-162-80-367.65-80-367.65s-10.76,28.41-24.4,72.42Z" class="a"></path>
  <path id="path435" d="M52.45,908.28H66.62c67.77-94.5,126.31-177.93,126.31-177.93S126.2,813.89,52.45,908.28Z" class="a"></path>
  <path id="path437" d="M20.11,908.28c.08-13.38.12-28.28.12-44.91,0-163-8.28-429-8.28-429s-8.27,266-8.27,429c0,16.63,0,31.53.11,44.91Z" class="a"></path>
  <rect id="rect439" height="45.99" width="20.71" y="427.22" x="1.6" class="b"></rect>
  <path id="path441" d="M10.06,606.08c-7.65,0-15.3-2.63-22.08-6.11" class="c"></path>
  <path id="path443" d="M8.73,585.81c-7.26,0-14.52-2.77-20.75-6.24" class="c"></path>
  <path id="path445" d="M10.58,567.7c-8.22,0-16.44-3.72-23-7.86" class="c"></path>
  <path id="path447" d="M10.22,547.82c-8.38,0-16.77-4.65-22.67-8.9" class="c"></path>
  <path id="path449" d="M10.32,527.05c-9.11,0-18.23-6.58-22.77-10.42" class="c"></path>
  <path id="path451" d="M10.2,506.71c-10.26,0-20.51-10.45-20.51-10.45" class="c"></path>
  <path id="path453" d="M8.41,626.48c-7,0-14-2.08-20.43-5" class="c"></path>
  <path id="path455" d="M7.87,667A54,54,0,0,1-12,662.75" class="c"></path>
  <path id="path457" d="M7.7,646.73A51.49,51.49,0,0,1-12,642.31" class="c"></path>
  <path id="path459" d="M6,786.9a62.9,62.9,0,0,1-17.18-2.55" class="c"></path>
  <path id="path461" d="M5.77,766.17a61.35,61.35,0,0,1-16.95-2.56" class="c"></path>
  <path id="path463" d="M5.79,748.24a59.73,59.73,0,0,1-17-2.65" class="c"></path>
  <path id="path465" d="M6.54,727.9a58.36,58.36,0,0,1-17.83-3" class="c"></path>
  <path id="path467" d="M6.4,707.6A56.8,56.8,0,0,1-12,704.25" class="c"></path>
  <path id="path469" d="M7.14,687.29A55.54,55.54,0,0,1-12,683.52" class="c"></path>
  <path id="path471" d="M6,807.39a64,64,0,0,1-17.22-2.53" class="c"></path>
  <path id="path473" d="M5.18,828A63.73,63.73,0,0,1-10,826" class="c"></path>
  <path id="path475" d="M13.94,606.08c22.72,0,45.45-23.17,45.45-23.17" class="c"></path>
  <path id="path477" d="M15.27,585.81c19.35,0,38.7-19.73,38.7-19.73" class="c"></path>
  <path id="path479" d="M13.42,567.7c18.49,0,37-18.86,37-18.86" class="c"></path>
  <path id="path481" d="M13.77,547.82c15.41,0,30.83-15.71,30.83-15.71" class="c"></path>
  <path id="path483" d="M13.68,527.05c12.87,0,25.74-13.12,25.74-13.12" class="c"></path>
  <path id="path485" d="M13.79,506.71c10.26,0,20.52-10.45,20.52-10.45" class="c"></path>
  <path id="path487" d="M15.59,626.48c24.05,0,48.1-24.52,48.1-24.52" class="c"></path>
  <path id="path489" d="M16.13,667c27.64,0,55.29-28.19,55.29-28.19" class="c"></path>
  <path id="path491" d="M16.29,646.73c25.87,0,51.73-26.37,51.73-26.37" class="c"></path>
  <path id="path493" d="M18,786.9c35.72,0,71.45-36.42,71.45-36.42" class="c"></path>
  <path id="path495" d="M18.22,766.17c34.53,0,69.05-35.2,69.05-35.2" class="c"></path>
  <path id="path497" d="M18.2,748.24c33.48,0,67-34.14,67-34.14" class="c"></path>
  <path id="path499" d="M17.46,727.9c32.13,0,64.27-32.76,64.27-32.76" class="c"></path>
  <path id="path501" d="M17.6,707.6c30.6,0,61.21-31.2,61.21-31.2" class="c"></path>
  <path id="path503" d="M16.86,687.29c29.16,0,58.31-29.73,58.31-29.73" class="c"></path>
  <path id="path505" d="M18,807.39c36.21,0,72.41-36.91,72.41-36.91" class="c"></path>
  <path id="path507" d="M18.81,828c36.29,0,72.58-37,72.58-37" class="c"></path>
  <rect id="rect509" transform="translate(-115.19 1447.65) rotate(-143.16)" height="45.99" width="20.71" y="720.01" x="173.09" class="b"></rect>
  <path id="path511" d="M91.52,868.88c18.19,13.63,50.27,8.71,50.27,8.71" class="c"></path>
  <path id="path513" d="M104.74,853.46c15.48,11.6,42.8,7.41,42.8,7.41" class="c"></path>
  <path id="path515" d="M114.12,837.86c14.8,11.08,40.9,7.08,40.9,7.08" class="c"></path>
  <path id="path517" d="M126.32,822.16c12.33,9.24,34.09,5.9,34.09,5.9" class="c"></path>
  <path id="path519" d="M138.69,805.48c10.3,7.72,28.47,4.93,28.47,4.93" class="c"></path>
  <path id="path521" d="M151,789.27c8.21,6.15,22.69,3.93,22.69,3.93" class="c"></path>
  <path id="path523" d="M80.61,886.2c19.25,14.43,53.2,9.22,53.2,9.22" class="c"></path>
  <path id="path525" d="M88.42,866.56c-18.19-13.63-24.23-54.49-24.23-54.49" class="c"></path>
  <path id="path527" d="M99.5,849.54C84,837.94,77.75,801.85,77.75,801.85" class="c"></path>
  <path id="path529" d="M111.84,836.15c-14.8-11.09-18.3-37.27-18.3-37.27" class="c"></path>
  <path id="path531" d="M123.48,820C111.14,810.79,108.23,789,108.23,789" class="c"></path>
  <path id="path533" d="M136,803.47c-10.3-7.72-12.73-25.94-12.73-25.94" class="c"></path>
  <path id="path535" d="M148.1,787.12C139.89,781,138,766.45,138,766.45" class="c"></path>
  <path id="path537" d="M74.86,881.9c-19.25-14.42-24.67-61.51-24.67-61.51" class="c"></path>
  <path id="path539" d="M50.14,914c-22.12-16.57-30-64.4-30-64.4" class="c"></path>
  <path id="path541" d="M62.16,897.68C41.46,882.18,34,826.43,34,826.43" class="c"></path>
  <path id="path543" d="M-10.39,893.69c10.24-19.93,14.2-44.1,14.2-44.1" class="c"></path>
  <path id="path545" d="M297.89,726.92l120-101.76s-152.1-123.49-152.1-481.67l-140.11,18C125.65,594.36,297.89,726.92,297.89,726.92Z" class="d"></path>
  <path id="path547" d="M235.33,222.37c-.12,6.79-3.59,13.08-10.47,19a38.87,38.87,0,0,1-21.62,9.71c.13-.25,2.28-2.21,6.47-5.8,6.39-6.21,15.48-13.68,15.85-23.38.2-5.28-2.89-7.93-9.11-7.63a23.21,23.21,0,0,0-7.68,1.83Q206,221.21,202.38,227c-1.22,1.83-3,4.65-5.24,8.46a9.65,9.65,0,0,0-1.29,4.3,24.69,24.69,0,0,0,.21,2.6,25,25,0,0,1,.22,2.59,10.48,10.48,0,0,1-1.33,4.77l-.29,0c-3,.32-5.36-1-6.92-3.93-3.61,3.13-6.52,4.81-8.76,5l-3.08-.3c-.41-1.08-1.8-2.49-4.1-4.24-2.06-1.56-3.09-3-3.09-4.36,0-3.45,2.23-7.85,6.79-13a65.58,65.58,0,0,1,11.7-10.36c.35-3.87.54-5.8.94-9.67-.53.08-1.83.26-3.79.62a30.1,30.1,0,0,1-3.78.53,9.3,9.3,0,0,1-6.8-2.52l.52-.68q6.61-2.15,9.15-3.25a36.28,36.28,0,0,0,8.55-4.65,41.51,41.51,0,0,1,2.23-8.8,33.41,33.41,0,0,1,3.09-7,11.76,11.76,0,0,1,6.4-4.58l1.23.53c.55.55.95,2,1.23,4.43a9.68,9.68,0,0,0,1.7,5.12c1.46,1.67,4,2.46,7.54,2.38,0,.57.06.86.11,1.44a11.31,11.31,0,0,1-3.28,4.33c-1.42,1.13-7.28,4-17.53,8.9a33.6,33.6,0,0,0-1.61,8,18.51,18.51,0,0,0,0,2.12c3.09-1.69,5.84-3.06,8.26-4.15A3.83,3.83,0,0,0,202,210a2.65,2.65,0,0,0-1.48-2.41c0-.33,0-.49,0-.82a13,13,0,0,1,2.88-1.17,15,15,0,0,1,3.15-.8,5.89,5.89,0,0,1,4.75,2.26c-.21,1.09-.31,1.64-.51,2.73a54.92,54.92,0,0,1,7.76-1c4.89-.21,8.93.89,12,3.28A12,12,0,0,1,235.33,222.37Zm-48.52,16.94c-.24-5.35-.33-8-.47-13.38a44.81,44.81,0,0,0-6.93,6.66c-2.94,3.4-4.39,6-4.38,7.7q0,3.36,5.56,4C182,243.69,184.1,242,186.81,239.31Zm11.38-20.4a39.46,39.46,0,0,0-5.55,3.79,25,25,0,0,0-.48,4.63,29.52,29.52,0,0,0,.43,5.48c.13-.25,1.17-2.56,3.16-6.9A32.37,32.37,0,0,0,198.19,218.91Zm5.94-27.65c-.47-1.82-.71-2.73-1.17-4.55a26,26,0,0,0-3.53,8.42A34.32,34.32,0,0,0,204.13,191.26Z" class="e"></path>
  <path id="path549" d="M240,313a44.51,44.51,0,0,1,.16,9.76c-.42,4.66-1.52,7.72-3.32,9.12a16.91,16.91,0,0,1-5,2.5,20,20,0,0,0-4.48,2l-.66-.3c3.19-11.75,4.6-20.29,3.9-26a15.67,15.67,0,0,0-3.34-8.09,11.06,11.06,0,0,0-8.27-4.34,42,42,0,0,0-8.19.39c-10.38,1.47-18.19,5.34-23.28,11.65s-7,14.1-5.7,23.25c.59,4.05,1.65,6.24,3.12,6.56,4.64-4.24,8.86-10.19,12.65-17.75q5.52-11,6.45-19.77c1.91.31,3,1.72,3.27,4.22.33,3.07-.38,7.29-1.92,12.6a61.14,61.14,0,0,1-4.84,12.38c-4.65,7.55-9.67,17.4-18.53,21.05-1.52-.6-3-2.71-4.32-6.35a42.51,42.51,0,0,1,1.83-32.7A31.72,31.72,0,0,1,192.8,299a51.49,51.49,0,0,1,19.31-6.38c5.82-.79,10.28-.44,13.42,1C234.1,297.63,238.81,304,240,313Z" class="e"></path>
  <path id="path551" d="M248.11,398.73c-2,4.24-8.93,7.94-20.84,11.06.24.72,1,3.19,2.45,7.29,1,2.94,1.83,5.38,2.36,7.31a56.58,56.58,0,0,1,1.49,7.21A53,53,0,0,1,245.2,431c5.72.26,8.87,1.39,9.5,3.44a3.32,3.32,0,0,1-.41,2.41c-1.89,3.83-5.31,7.46-10.32,10.89l-.65-.07a28.35,28.35,0,0,0,3.26-8.93c-4.44-.32-6.69-.49-6.75-.47a35,35,0,0,0-6.92.39c.33,8.08-1.13,13.92-4.66,17.49l-.76.25a12.16,12.16,0,0,1-6.37.55,30.63,30.63,0,0,1-9-3.32c-3.63-2-5.76-4-6.39-6.13-1.54-5.09,16.79-10.1,19.61-14.27.52-.76-.7-5.09-1.44-7.84-1-3.84-2.53-12.14-4.56-13.7-1-.76-5.22-1.19-7.8-2.79l.4-.48a22.48,22.48,0,0,0,5-.9l.88-.24c-.63-2.91-1.25-5.86-1.75-8.79-.89-5.15-.76-8.45.2-9.68a4.62,4.62,0,0,1,2.75-1.52,2.24,2.24,0,0,1,2.79,1c.56,1,1,2.05,1.46,2.9a14.23,14.23,0,0,0,3.16,3.49c2.32,2.08,7,2.18,14,.34a6.78,6.78,0,0,1,4.87.42A4.81,4.81,0,0,1,248.11,398.73Zm-22.22,41c-1.11.27-2.17.57-3.19.89-6.39,2-9.26,4-8.61,6.18.32,1,1.34,1.67,3,1.91a9,9,0,0,0,4.12-.26C224.21,447.49,225.73,444.57,225.89,439.72ZM230,401.44c-3.19-1-5.95-3.5-8.25-7.63A84.13,84.13,0,0,0,225,404.43,29.09,29.09,0,0,0,230,401.44Z" class="e"></path>
  <path id="path553" d="M292,517c2.46,6.71,1.07,13.84-3.81,21.29a37.17,37.17,0,0,1-17.13,14.56c-.74.32-2.7,1-5.87,2.06,6.49-8.5,10.68-14,12.25-16.49,5-8,6.85-14.4,5.12-19.12-1.29-3.53-4.35-4.33-9.2-2.44a40.57,40.57,0,0,0-9.49,6,70.54,70.54,0,0,0-8.29,7.49,46.61,46.61,0,0,0-10,16.18l-.36.15c-.93.46-2,.09-3.08-.95a8.53,8.53,0,0,1-2.07-2.8,7.32,7.32,0,0,1-.1-3.51c.62-2.22,1.52-5.57,2.77-10,.68-2.89,1.71-7.27,3.33-12.92a100.62,100.62,0,0,0,3.08-13,49.14,49.14,0,0,0-4.75,3.06,23.77,23.77,0,0,1-4.83,2.81c-2.33.89-5.86,0-10.63-2.76l.5-.69a10.94,10.94,0,0,0,2.81-.67c3.08-1.16,7.27-4.33,12.65-9.48s8.88-8,10.44-8.53a11.21,11.21,0,0,1,5.46-.32c2.16.33,3.4,1.14,3.76,2.46l.11.35a44.74,44.74,0,0,0-4.43,6.43,19.09,19.09,0,0,0-1.06,2.74c-.92,2.43-2.19,6.13-3.76,11.1s-2.94,10.25-4.11,15.82c7.7-7.38,14.32-12,19.69-14.1.24-.1.6-.27,1.1-.53s.86-.43,1.1-.52a17.16,17.16,0,0,1,11.4-.67A10.81,10.81,0,0,1,292,517Z" class="e"></path>
  <path id="path555" d="M343.8,595.34c1.07,1.73,2.16,5.23,3.24,10.51a43.66,43.66,0,0,1,1,9.17c0,3.8-1.29,8.34-3.53,13.56a58,58,0,0,1-7.3,12.6,29.75,29.75,0,0,1-8.07,7.11,15.89,15.89,0,0,1-12,2.16,17,17,0,0,1-10.38-6.69,74.85,74.85,0,0,1-7-10.67c-.32-.65-1.36-3.25-3.11-7.77a33.34,33.34,0,0,0-3.91-7.57,19.84,19.84,0,0,0-2.13-2.27,18,18,0,0,1-2.08-2.19c-1.19-1.64-1.82-4.5-1.85-8.51,0-5.64,0-8.56-.07-8.83a17.86,17.86,0,0,0-6.37-1.9c0-.35,0-.53,0-.87a11.16,11.16,0,0,1,1.78-1.09,16.35,16.35,0,0,1,7.93-1.58,11.84,11.84,0,0,1,7.71,2.91,4.59,4.59,0,0,1-.86,5.33c-1.45,1.69-3.17,3.38-4.39,5-1.59,2.1-1.88,5.33-1,8.71,5.59,3.76,8.93,6.26,10,7.65a54.83,54.83,0,0,1,4.5,8.33,53.13,53.13,0,0,0,5.12,9.13,25.32,25.32,0,0,0,5.36,5.63,6.46,6.46,0,0,0,7.38.15,19.32,19.32,0,0,0,4.29-4.57,49.07,49.07,0,0,0,3.58-5.32,109.76,109.76,0,0,0,10.54-26A53.92,53.92,0,0,0,343.8,595.34Z" class="e"></path>
  <path id="path557" d="M196.46,260.89a16.68,16.68,0,0,1,5.33,3.42,8.27,8.27,0,0,1,1.67,2.19,17.43,17.43,0,0,0,1.46,2.38A24.14,24.14,0,0,0,206.7,271l1,1,1,.9a13.75,13.75,0,0,0,5,2.61v.6a12.68,12.68,0,0,1-6.4-.57,20.24,20.24,0,0,1-5.71-3.19c-.88-.65-1.76-1.29-2.63-2a7.82,7.82,0,0,1-2-2.51,11.19,11.19,0,0,1-1.05-3.11,9,9,0,0,1,0-3.57Z" class="e"></path>
</svg>
