<svg id="svg134" version="1.1" viewBox="0 0 510 900" height="900" width="510" xmlns="http://www.w3.org/2000/svg">
  <metadata id="metadata138">
    
      
        image/svg+xml
        
      
    
  </metadata>
  
  <defs id="defs4">
    <style id="style2">.a{fill:#f8dc2a;}.a,.b,.c,.d,.e,.f,.g,.h,.i,.j{stroke:#1a1a1a;}.a,.b,.c,.d,.e{stroke-linejoin:round;}.a,.b,.d,.e,.f,.i{stroke-width:8px;}.b{fill:#272D22;}.c,.e,.g{fill:none;}.c,.g{stroke-width:5px;}.d,.k{fill:#694390;}.f{fill:#79d6e0;}.f,.g,.h,.i{stroke-miterlimit:10;}.h{fill:#d2382d;stroke-linecap:round;stroke-width:6px;}.i{fill:#ee701b;}.j{fill:#EFEEE6;stroke-width:15px;}.j,.k{stroke-miterlimit:2;}.k{stroke:#694390;stroke-width:12px;}</style>
  </defs>
  <title id="title6">50</title>
  <path id="path8" d="M718.18,637.56c80.07,299.2,19.91,580.34-147.07,802.58L510,1344.84C692.47,1160.34,757.89,907.57,718.18,637.56Z" class="a"></path>
  <path id="path10" d="M221.25,274c80.06,299.21,19.9,580.35-147.08,802.58l-61.1-95.3C195.54,796.75,261,544,221.25,274Z" class="a"></path>
  <path id="path12" d="M11.78,117.88c140.33,211.1,206.93,467.88,202,722.4-20.62-17.29-39.2-5.42-59.82-22.71C179.18,587.35,122.73,322.42,11.78,117.88Z" class="b"></path>
  <path id="path14" d="M10.34,117.26C140.53,332.35,203,586.6,187.26,837.54" class="c"></path>
  <path id="path16" d="M-54.81,268.13C114.76,418.8,169.29,619.33,120,829.85L38.39,797.36C113.29,603.5,73,418.27-54.81,268.13Z" class="b"></path>
  <path id="path18" d="M-56.8,267.85C97.32,423.5,146.23,622.63,81.77,832" class="c"></path>
  <path id="path20" d="M474.77,265.05c-189.52,177.79-264.57,402.71-233,631.54l87.46-41.41C269.65,646.47,328.51,439.4,474.77,265.05Z" class="b"></path>
  <path id="path22" d="M476.86,264.61c-174,182.22-243.09,405.21-195.76,631.72" class="c"></path>
  <path id="path24" d="M528.41,358C332.48,497.74,269.47,683.75,326.47,879l94.25-30.14C334.18,669.07,380.7,497.24,528.41,358Z" class="b"></path>
  <path id="path26" d="M530.72,357.71C352.63,502.1,296.11,686.81,370.6,881" class="c"></path>
  <path id="path28" d="M-100.94,420.78C55.16,508.57,129,653.81,123.13,824L54.25,812.54C82.72,650.93,22.42,515.09-100.94,420.78Z" class="b"></path>
  <path id="path30" d="M-102.55,420.9C42.24,515.08,111.47,660.18,93.57,832" class="c"></path>
  <path id="path32" d="M-124,613.5C8.78,622,80.82,699.61,91.33,824.41L29.2,844.61c9.16-126-48.65-202.18-153.42-227.48" class="b"></path>
  <path id="path34" d="M-127.48,615.58C-2.71,632.24,65.36,711.88,65.9,842.86" class="c"></path>
  <path id="path36" d="M26,472.8c156.11,87.79,230,233,224.07,403.22l-68.87-11.45C209.65,703,149.36,567.11,26,472.8Z" class="b"></path>
  <path id="path38" d="M24.39,472.92C169.18,567.1,238.41,712.21,220.51,884" class="c"></path>
  <path id="path40" d="M489.26,524.5c-82.05,81-112.3,181.36-94.89,282.09l38.45-19.41C403.2,695.69,426.48,603.42,489.26,524.5Z" class="b"></path>
  <path id="path42" d="M490.19,524.28C415.14,607,387.51,706.47,411.93,806" class="c"></path>
  <path id="path44" d="M264.17,146.5c6.23,12.15,6.92,29.78,7.14,44.61.05,4-4,3.69-5.6.08a219.8,219.8,0,0,0-19.22-33.37c-3.67-5.37-6.23-16-1.53-21.49C252.37,127.68,261.55,141.39,264.17,146.5Z" class="d"></path>
  <path id="path46" d="M239.21,270.48c3.67,21,20.16,35.72,20.16,35.72s10.55-19.4,6.89-40.43-20.17-35.72-20.17-35.72S235.54,249.46,239.21,270.48Z" class="e"></path>
  <path id="path48" d="M269.16,233.12c6.3,20.39,24.52,32.88,24.52,32.88s8-20.58,1.72-41-24.52-32.88-24.52-32.88S262.87,212.72,269.16,233.12Z" class="e"></path>
  <path id="path50" d="M218.46,272.87c-3.67,21-20.16,35.72-20.16,35.72s-10.55-19.41-6.88-40.44,20.16-35.72,20.16-35.72S222.13,251.84,218.46,272.87Z" class="e"></path>
  <path id="path52" d="M184,245.57c-6.29,20.4-24.51,32.88-24.51,32.88s-8-20.58-1.72-41,24.51-32.88,24.51-32.88S190.25,225.17,184,245.57Z" class="e"></path>
  <path id="path54" d="M292,319.87c0,54.58-63.14,98.17-63.14,98.17s-63.14-43.59-63.14-98.17,63.14-59.2,63.14,6C228.85,260.67,292,265.29,292,319.87Z" class="d"></path>
  <path id="path56" d="M242.41,301.87c0,13.21-13.56,110.13-13.56,110.13s-13.56-96.92-13.56-110.13S221.36,278,228.85,278,242.41,288.66,242.41,301.87Z" class="d"></path>
  <path id="path58" d="M150,307.36c-30.91,17.52-62.34,35-94,51.25C46.2,316.1,55.6,263.44,96.3,240.22c11.86-6.76,50.87-19.14,59.88-.3,7.51,15.7-30,31.81-38.81,37.33,12.91-7.21,51-22.28,61.95-2.39C187.34,289.43,158.67,302.43,150,307.36Z" class="d"></path>
  <path id="path60" d="M146.89,272.37C109.37,287.45,75,313.32,58.12,352,68.79,312,98.35,271.2,136,257.63c8.64-3.11,28.13-6.52,31.76-.25C170.53,262.12,151.77,270.4,146.89,272.37Z" class="d"></path>
  <path id="path62" d="M300.1,295c30.9,17.52,62.33,35,94,51.25,9.79-42.51.39-95.17-40.32-118.39-11.86-6.76-50.86-19.14-59.87-.3-7.51,15.7,30,31.81,38.8,37.33-12.91-7.21-51-22.28-61.94-2.39C262.71,277.09,291.39,290.09,300.1,295Z" class="d"></path>
  <path id="path64" d="M303.16,260c37.52,15.08,71.91,41,88.77,79.58-10.66-39.95-40.22-80.75-77.91-94.32-8.63-3.11-28.13-6.52-31.76-.25C279.52,249.78,298.29,258.07,303.16,260Z" class="d"></path>
  <path id="path66" d="M192.45,157.6c-7.12,11.65-9.13,29.18-10.46,44-.35,3.95,3.69,4,5.58.5a220.51,220.51,0,0,1,21.66-31.84c4.07-5.07,7.42-15.48,3.14-21.3C205.63,139.72,195.45,152.7,192.45,157.6Z" class="d"></path>
  <path id="path68" d="M209.47,206c-4.28,6.73-4,17.79-3.43,27.14a2.3,2.3,0,0,0,4.37.91,90.67,90.67,0,0,1,13.38-18.16c2.61-2.83,4.1-9.17.17-13.37C217.77,195.93,211.27,203.19,209.47,206Z" class="d"></path>
  <path id="path70" d="M256.48,204.38c1.66,7.8-2.49,18.06-6.25,26.63a2.31,2.31,0,0,1-4.42-.66,90.37,90.37,0,0,0-6.2-21.7c-1.46-3.56-.64-10,4.5-12.58C252.22,192,255.78,201.1,256.48,204.38Z" class="d"></path>
  <polygon id="polygon72" points="521.05 706.64 305.49 706.64 205.98 766.08 69.72 706.64 -5.69 706.64 -5.69 912 521.05 912 521.05 706.64" class="f"></polygon>
  <line id="line74" y2="728.29" x2="516.12" y1="728.29" x1="-5.69" class="g"></line>
  <line id="line76" y2="751.52" x2="516.12" y1="751.52" x1="-5.69" class="g"></line>
  <line id="line78" y2="774.76" x2="516.12" y1="774.76" x1="-5.69" class="g"></line>
  <line id="line80" y2="797.99" x2="516.12" y1="797.99" x1="-5.69" class="g"></line>
  <line id="line82" y2="821.22" x2="516.12" y1="821.22" x1="-5.69" class="g"></line>
  <line id="line84" y2="844.45" x2="516.12" y1="844.45" x1="-5.69" class="g"></line>
  <line id="line86" y2="867.69" x2="516.12" y1="867.69" x1="-5.69" class="g"></line>
  <line id="line88" y2="890.92" x2="516.12" y1="890.92" x1="-5.69" class="g"></line>
  <path id="path90" d="M356.06,36.82c-3.6,0-6.52,2.31-6.52,5.16,0,4.07,4.17,7.37,9.31,7.37,7.35,0,13.3-4.71,13.3-10.53,0-8.3-8.51-15-19-15-15,0-27.15,18.77-27.15,35.49C326,76.22,343.37,76,364.78,76H518V-14.9s-69.18-4.91-84.75,21c-27-3.13-57.23,3.86-68.2,17.7" class="h"></path>
  <path id="path92" d="M351.86,112.89c-3.6,0-6.52,2.31-6.52,5.15,0,4.07,4.17,7.37,9.32,7.37,7.34,0,13.3-4.71,13.3-10.52,0-8.31-8.51-15-19-15-15,0-27.14,18.77-27.14,35.48,0,16.95,17.36,16.69,38.78,16.69H513.84V31.16s-72-9.7-72,36.56c-39.53,0-76.3,15-80.94,32.13" class="h"></path>
  <path id="path94" d="M421.54,140c-3.6,0-6.51,2.31-6.51,5.15,0,4.07,4.16,7.37,9.31,7.37,7.34,0,13.3-4.71,13.3-10.52,0-8.31-8.51-15-19-15-15,0-27.15,18.77-27.15,35.48,0,17,17.36,16.69,38.78,16.69h84.25V108.25" class="h"></path>
  <path id="path96" d="M478,97.16c-2.45,0-4.44,1.58-4.44,3.52,0,2.77,2.84,5,6.35,5,5,0,9.06-3.21,9.06-7.17,0-5.66-5.8-10.25-12.95-10.25-10.22,0-18.5,12.79-18.5,24.18,0,11.55,11.83,11.38,26.43,11.38h29.48V75.54s-29.27-3.24-29.27,12.74" class="h"></path>
  <path id="path98" d="M462.56,188.83c-3.6,0-6.52,2.3-6.52,5.15,0,4.07,4.17,7.37,9.31,7.37,7.35,0,13.31-4.71,13.31-10.52,0-8.31-8.51-15-19-15-15,0-27.14,18.77-27.14,35.48,0,16.95,17.36,16.69,38.78,16.69h43.25V157.1s-42.94-4.75-42.94,18.69" class="h"></path>
  <path id="path100" d="M48.84,23.4c3.6,0,6.51,2.31,6.51,5.16,0,4.07-4.17,7.37-9.31,7.37-7.34,0-13.3-4.71-13.3-10.53,0-8.3,8.51-15,19-15,15,0,27.15,18.77,27.15,35.49,0,16.95-17.36,16.69-38.78,16.69H-3.15V-8.32S39.8-13.07,39.8,10.36" class="h"></path>
  <rect id="rect102" height="85.98" width="75.38" y="685.3" x="185.59" class="i"></rect>
  <ellipse style="fill:#c62316;fill-opacity:1" id="ellipse104" ry="19.56" rx="38.19" cy="685.3" cx="223.28" class="i"></ellipse>
  <polygon id="polygon106" points="203.76 849.42 -100.94 736.16 -35.87 655.96 268.83 769.22 203.76 849.42" class="a"></polygon>
  <line id="line108" y2="809.32" x2="236.3" y1="696.06" x1="-68.41" class="a"></line>
  <rect id="rect110" height="85.98" width="75.38" y="776.11" x="24.89" class="i"></rect>
  <ellipse style="fill:#c62316;fill-opacity:1" id="ellipse112" ry="19.56" rx="38.19" cy="776.11" cx="62.58" class="i"></ellipse>
  <polygon id="polygon114" points="334.13 662.93 -26.51 896.33 90.84 939.19 451.48 705.79 334.13 662.93" class="a"></polygon>
  <line id="line116" y2="684.36" x2="392.8" y1="917.76" x1="32.16" class="a"></line>
  <rect id="rect118" height="108.57" width="75.38" y="799.41" x="292.23" class="i"></rect>
  <ellipse style="fill:#c62316;fill-opacity:1" id="ellipse120" ry="19.56" rx="38.19" cy="799.41" cx="329.93" class="i"></ellipse>
  <path id="path122" d="M591.32,722.18C488.6,774.54,429.4,861,415.5,962.32L458,955.45C457.48,859.29,507.59,778.39,591.32,722.18Z" class="b"></path>
  <path id="path124" d="M592.27,722.25c-96.58,56.16-153,142.57-159.84,244.8" class="c"></path>
  <path id="path126" d="M588.57,803.59c-82.89,25.31-136.64,81.77-157.85,155.24l32.75.53C473.26,887.79,519.57,834.29,588.57,803.59Z" class="b"></path>
  <path id="path128" d="M589.28,803.77C510.61,832.71,459,889.48,443,964.59" class="c"></path>
</svg>
