<svg id="svg114" version="1.1" viewBox="0 0 510 900" height="900" width="510" xmlns="http://www.w3.org/2000/svg">
  <metadata id="metadata118">
    
      
        image/svg+xml
        
      
    
  </metadata>
  
  <defs id="defs94">
    <style id="style92">.a,.c{fill:#272D22;}.a,.b{stroke:#1a1a1a;}.a{stroke-miterlimit:10;stroke-width:8px;}.b{fill:#EFEEE6;stroke-width:15px;}.b,.c{stroke-miterlimit:2;}.c{stroke:#272D22;stroke-width:12px;}</style>
  </defs>
  <title id="title96">82</title>
  <path id="path98" d="M510,594.44c-68-43.8-157.28-70.36-255-70.36S68,550.64,0,594.44V900H510Z" class="a"></path>
  <path id="path100" d="M90.6,591.85A523.44,523.44,0,0,0,0,599.67V900H475.48A211.15,211.15,0,0,0,477,874.76C477,718.51,304,591.85,90.6,591.85Z" class="a"></path>
  <path id="path102" d="M510,617.16c-2.9,0-5.8-.08-8.72-.08-213.4,0-386.39,126.67-386.39,282.92H510Z" class="a"></path>
  <path id="path104" d="M0,680V900H266.15C240.49,795.45,136.36,710.84,0,680Z" class="a"></path>
  <path id="path106" d="M510,900V709.89C418.85,751.35,353,819.81,333.32,900Z" class="a"></path>
  <path id="path108" d="M510,900V814.33a513,513,0,0,0-135.94-18c-120.5,0-228.11,40.39-299,103.68Z" class="a"></path>
</svg>
